{
  "accessors": [
    {
      "bufferView": 2,
      "componentType": 5126,
      "count": 362,
      "max": [
        2.4351999759674072,
        0.4262999892234802,
        2.4351999759674072
      ],
      "min": [
        -2.4351999759674072,
        -0.4262999892234802,
        -2.4351999759674072
      ],
      "type": "VEC3"
    },
    {
      "bufferView": 2,
      "byteOffset": 4344,
      "componentType": 5126,
      "count": 362,
      "max": [
        0.9874091744422913,
        0.999313235282898,
        0.9119046330451965
      ],
      "min": [
        -0.9119046330451965,
        -0.9992630481719971,
        -0.9119046330451965
      ],
      "type": "VEC3"
    },
    {
      "bufferView": 1,
      "componentType": 5126,
      "count": 362,
      "max": [
        0.8658999800682068,
        0.9128000140190125
      ],
      "min": [
        -0.8676999807357788,
        -0.9614999890327454
      ],
      "type": "VEC2"
    },
    {
      "bufferView": 0,
      "componentType": 5125,
      "count": 960,
      "type": "SCALAR"
    }
  ],
  "asset": {
    "extras": {
      "author": "Donjuan301 (https://sketchfab.com/Donjuan301)",
      "license": "CC-BY-4.0 (http://creativecommons.org/licenses/by/4.0/)",
      "source": "https://sketchfab.com/3d-models/gold-ring-7565f8283ad84caeab80f9e44ad2c215",
      "title": "Gold Ring"
    },
    "generator": "Sketchfab-12.68.0",
    "version": "2.0"
  },
  "bufferViews": [
    {
      "buffer": 0,
      "byteLength": 3840,
      "name": "floatBufferViews",
      "target": 34963
    },
    {
      "buffer": 0,
      "byteLength": 2896,
      "byteOffset": 3840,
      "byteStride": 8,
      "name": "floatBufferViews",
      "target": 34962
    },
    {
      "buffer": 0,
      "byteLength": 8688,
      "byteOffset": 6736,
      "byteStride": 12,
      "name": "floatBufferViews",
      "target": 34962
    }
  ],
  "buffers": [
    {
      "byteLength": 15424,
      "uri": "ring.bin"
    }
  ],
  "extensionsUsed": [
    "KHR_materials_clearcoat"
  ],
  "images": [
    {
      "uri": "textures/Map/ring_baseColor.png"
    },
    {
      "uri": "textures/Map/ring_clearcoat.png"
    }
  ],
  "materials": [
    {
      "alphaMode": "BLEND",
      "doubleSided": true,
      "emissiveTexture": {
        "index": 0
      },
      "extensions": {
        "KHR_materials_clearcoat": {
          "clearcoatFactor": 0.5489256334020393,
          "clearcoatRoughnessFactor": 0.06859195349883565,
          "clearcoatTexture": {
            "index": 1
          }
        }
      },
      "name": "Tex_0014_0_png",
      "pbrMetallicRoughness": {
        "baseColorFactor": [
          0.6583687503420098,
          0.6583687503420098,
          0.6583687503420098,
          0.9137360232019408
        ],
        "baseColorTexture": {
          "index": 0
        },
        "roughnessFactor": 0.4206735007813023
      }
    }
  ],
  "meshes": [
    {
      "name": "Object_0",
      "primitives": [
        {
          "attributes": {
            "NORMAL": 1,
            "POSITION": 0,
            "TEXCOORD_0": 2
          },
          "indices": 3,
          "material": 0,
          "mode": 4
        }
      ]
    }
  ],
  "nodes": [
    {
      "children": [
        1
      ],
      "matrix": [
        1.0,
        0.0,
        0.0,
        0.0,
        0.0,
        2.220446049250313e-16,
        -1.0,
        0.0,
        0.0,
        1.0,
        2.220446049250313e-16,
        0.0,
        0.0,
        0.0,
        0.0,
        1.0
      ],
      "name": "Sketchfab_model"
    },
    {
      "children": [
        2
      ],
      "name": "Gold Ring.obj.cleaner.materialmerger.gles"
    },
    {
      "mesh": 0,
      "name": "Object_2"
    }
  ],
  "samplers": [
    {
      "magFilter": 9729,
      "minFilter": 9987,
      "wrapS": 10497,
      "wrapT": 10497
    }
  ],
  "scene": 0,
  "scenes": [
    {
      "name": "Sketchfab_Scene",
      "nodes": [
        0
      ]
    }
  ],
  "textures": [
    {
      "sampler": 0,
      "source": 0
    },
    {
      "sampler": 0,
      "source": 1
    }
  ]
}
