{
	"asset":{
		"generator":"Khronos glTF Blender I/O v4.4.56",
		"version":"2.0"
	},
	"scene":0,
	"scenes":[
		{
			"name":"Scene",
			"nodes":[
				10
			]
		}
	],
	"nodes":[
		{
			"mesh":0,
			"name":"Screenshot 2022-06-09 at 16-51-21 Wall Mural Helicopter lan.001"
		},
		{
			"mesh":1,
			"name":"Screenshot 2022-06-09 at 16-51-21 Wall Mural Helicopter lan.002"
		},
		{
			"mesh":2,
			"name":"Screenshot 2022-06-09 at 16-51-21 Wall Mural Helicopter lan.003"
		},
		{
			"mesh":3,
			"name":"Screenshot 2022-06-09 at 16-51-21 Wall Mural Helicopter lan.004"
		},
		{
			"mesh":4,
			"name":"Screenshot 2022-06-09 at 16-51-21 Wall Mural Helicopter lan.005"
		},
		{
			"mesh":5,
			"name":"Screenshot 2022-06-09 at 16-51-21 Wall Mural Helicopter lan.006"
		},
		{
			"mesh":6,
			"name":"Screenshot 2022-06-09 at 16-51-21 Wall Mural Helicopter lan_Scr"
		},
		{
			"children":[
				0,
				1,
				2,
				3,
				4,
				5,
				6
			],
			"name":"Screenshot 2022-06-09 at 16-51-21 Wall Mural Helicopter lan",
			"rotation":[
				-0.70710688829422,
				0,
				0,
				0.7071066498756409
			],
			"scale":[
				100,
				99.99999237060547,
				99.99999237060547
			]
		},
		{
			"children":[
				7
			],
			"name":"RootNode"
		},
		{
			"children":[
				8
			],
			"name":"HELI1.fbx",
			"rotation":[
				0.70710688829422,
				0,
				0,
				0.7071066498756409
			],
			"scale":[
				0.009999999776482582,
				0.010000001639127731,
				0.010000001639127731
			]
		},
		{
			"children":[
				9
			],
			"name":"Sketchfab_model",
			"rotation":[
				-0.70710688829422,
				0,
				0,
				0.7071066498756409
			],
			"scale":[
				100,
				100.00001525878906,
				100.00001525878906
			],
			"translation":[
				22.207000732421875,
				7.818399906158447,
				-27.492000579833984
			]
		}
	],
	"materials":[
		{
			"doubleSided":true,
			"name":"Screenshot_2022-06-09_at_16-51-21_Wall_Mural_Helicopter_lan.001",
			"pbrMetallicRoughness":{
				"baseColorTexture":{
					"index":0
				},
				"metallicFactor":0,
				"roughnessFactor":0.20000000298023224
			}
		}
	],
	"meshes":[
		{
			"name":"Screenshot 2022-06-09 at 16-51-21 Wall Mural Helicopter lan.007",
			"primitives":[
				{
					"attributes":{
						"POSITION":0,
						"NORMAL":1,
						"TEXCOORD_0":2,
						"TEXCOORD_1":3,
						"TEXCOORD_2":4
					},
					"indices":5,
					"material":0
				}
			]
		},
		{
			"name":"Screenshot 2022-06-09 at 16-51-21 Wall Mural Helicopter lan.008",
			"primitives":[
				{
					"attributes":{
						"POSITION":6,
						"NORMAL":7,
						"TEXCOORD_0":8,
						"TEXCOORD_1":9,
						"TEXCOORD_2":10
					},
					"indices":11,
					"material":0
				}
			]
		},
		{
			"name":"Screenshot 2022-06-09 at 16-51-21 Wall Mural Helicopter lan.009",
			"primitives":[
				{
					"attributes":{
						"POSITION":12,
						"NORMAL":13,
						"TEXCOORD_0":14,
						"TEXCOORD_1":15,
						"TEXCOORD_2":16
					},
					"indices":17,
					"material":0
				}
			]
		},
		{
			"name":"Screenshot 2022-06-09 at 16-51-21 Wall Mural Helicopter lan.010",
			"primitives":[
				{
					"attributes":{
						"POSITION":18,
						"NORMAL":19,
						"TEXCOORD_0":20,
						"TEXCOORD_1":21,
						"TEXCOORD_2":22
					},
					"indices":23,
					"material":0
				}
			]
		},
		{
			"name":"Screenshot 2022-06-09 at 16-51-21 Wall Mural Helicopter lan.011",
			"primitives":[
				{
					"attributes":{
						"POSITION":24,
						"NORMAL":25,
						"TEXCOORD_0":26,
						"TEXCOORD_1":27,
						"TEXCOORD_2":28
					},
					"indices":29,
					"material":0
				}
			]
		},
		{
			"name":"Screenshot 2022-06-09 at 16-51-21 Wall Mural Helicopter lan.012",
			"primitives":[
				{
					"attributes":{
						"POSITION":30,
						"NORMAL":31,
						"TEXCOORD_0":32,
						"TEXCOORD_1":33,
						"TEXCOORD_2":34
					},
					"indices":35,
					"material":0
				}
			]
		},
		{
			"name":"Screenshot 2022-06-09 at 16-51-21 Wall Mural Helicopter lan.006",
			"primitives":[
				{
					"attributes":{
						"POSITION":36,
						"NORMAL":37,
						"TEXCOORD_0":38,
						"TEXCOORD_1":39,
						"TEXCOORD_2":40
					},
					"indices":41,
					"material":0
				}
			]
		}
	],
	"textures":[
		{
			"sampler":0,
			"source":0
		}
	],
	"images":[
		{
			"mimeType":"image/png",
			"name":"Screenshot_2022-06-09_at_16-51-21_Wall_Mural_Helicopter_lan_baseColor",
			"uri":"../textures/Screenshot_2022-06-09_at_16-51-21_Wall_Mural_Helicopter_lan_baseColor.png"
		}
	],
	"accessors":[
		{
			"bufferView":0,
			"componentType":5126,
			"count":86761,
			"max":[
				0.031683146953582764,
				0.03267425298690796,
				9.089264494832605e-05
			],
			"min":[
				-0.043060772120952606,
				-0.03935643285512924,
				1.0474476766830776e-05
			],
			"type":"VEC3"
		},
		{
			"bufferView":1,
			"componentType":5126,
			"count":86761,
			"type":"VEC3"
		},
		{
			"bufferView":2,
			"componentType":5126,
			"count":86761,
			"type":"VEC2"
		},
		{
			"bufferView":3,
			"componentType":5126,
			"count":86761,
			"type":"VEC2"
		},
		{
			"bufferView":4,
			"componentType":5126,
			"count":86761,
			"type":"VEC2"
		},
		{
			"bufferView":5,
			"componentType":5125,
			"count":379929,
			"type":"SCALAR"
		},
		{
			"bufferView":6,
			"componentType":5126,
			"count":114234,
			"max":[
				0.04547518119215965,
				0.03762376680970192,
				9.108291851589456e-05
			],
			"min":[
				-0.03614725172519684,
				-0.03515582159161568,
				1.0807745638885535e-05
			],
			"type":"VEC3"
		},
		{
			"bufferView":7,
			"componentType":5126,
			"count":114234,
			"type":"VEC3"
		},
		{
			"bufferView":8,
			"componentType":5126,
			"count":114234,
			"type":"VEC2"
		},
		{
			"bufferView":9,
			"componentType":5126,
			"count":114234,
			"type":"VEC2"
		},
		{
			"bufferView":10,
			"componentType":5126,
			"count":114234,
			"type":"VEC2"
		},
		{
			"bufferView":11,
			"componentType":5125,
			"count":373005,
			"type":"SCALAR"
		},
		{
			"bufferView":12,
			"componentType":5126,
			"count":116588,
			"max":[
				0.04568018764257431,
				0.04349725320935249,
				9.135315485764295e-05
			],
			"min":[
				-0.03215616196393967,
				-0.042816564440727234,
				1.0561796443653293e-05
			],
			"type":"VEC3"
		},
		{
			"bufferView":13,
			"componentType":5126,
			"count":116588,
			"type":"VEC3"
		},
		{
			"bufferView":14,
			"componentType":5126,
			"count":116588,
			"type":"VEC2"
		},
		{
			"bufferView":15,
			"componentType":5126,
			"count":116588,
			"type":"VEC2"
		},
		{
			"bufferView":16,
			"componentType":5126,
			"count":116588,
			"type":"VEC2"
		},
		{
			"bufferView":17,
			"componentType":5125,
			"count":376314,
			"type":"SCALAR"
		},
		{
			"bufferView":18,
			"componentType":5126,
			"count":104226,
			"max":[
				0.044554438441991806,
				0.043242231011390686,
				9.100249008042738e-05
			],
			"min":[
				-0.0181115809828043,
				-0.043365634977817535,
				1.0713761184888426e-05
			],
			"type":"VEC3"
		},
		{
			"bufferView":19,
			"componentType":5126,
			"count":104226,
			"type":"VEC3"
		},
		{
			"bufferView":20,
			"componentType":5126,
			"count":104226,
			"type":"VEC2"
		},
		{
			"bufferView":21,
			"componentType":5126,
			"count":104226,
			"type":"VEC2"
		},
		{
			"bufferView":22,
			"componentType":5126,
			"count":104226,
			"type":"VEC2"
		},
		{
			"bufferView":23,
			"componentType":5125,
			"count":383673,
			"type":"SCALAR"
		},
		{
			"bufferView":24,
			"componentType":5126,
			"count":113501,
			"max":[
				0.04501407593488693,
				0.04547519236803055,
				9.094722918234766e-05
			],
			"min":[
				-0.014480222016572952,
				-0.045190971344709396,
				1.0938582818198483e-05
			],
			"type":"VEC3"
		},
		{
			"bufferView":25,
			"componentType":5126,
			"count":113501,
			"type":"VEC3"
		},
		{
			"bufferView":26,
			"componentType":5126,
			"count":113501,
			"type":"VEC2"
		},
		{
			"bufferView":27,
			"componentType":5126,
			"count":113501,
			"type":"VEC2"
		},
		{
			"bufferView":28,
			"componentType":5126,
			"count":113501,
			"type":"VEC2"
		},
		{
			"bufferView":29,
			"componentType":5125,
			"count":382962,
			"type":"SCALAR"
		},
		{
			"bufferView":30,
			"componentType":5126,
			"count":100773,
			"max":[
				0.04573163017630577,
				0.04573163017630577,
				9.118847810896114e-05
			],
			"min":[
				-0.04548785835504532,
				-0.04573163017630577,
				1.0458983524586074e-05
			],
			"type":"VEC3"
		},
		{
			"bufferView":31,
			"componentType":5126,
			"count":100773,
			"type":"VEC3"
		},
		{
			"bufferView":32,
			"componentType":5126,
			"count":100773,
			"type":"VEC2"
		},
		{
			"bufferView":33,
			"componentType":5126,
			"count":100773,
			"type":"VEC2"
		},
		{
			"bufferView":34,
			"componentType":5126,
			"count":100773,
			"type":"VEC2"
		},
		{
			"bufferView":35,
			"componentType":5125,
			"count":341799,
			"type":"SCALAR"
		},
		{
			"bufferView":36,
			"componentType":5126,
			"count":102053,
			"max":[
				0.021287107840180397,
				0.022277221083641052,
				6.22960360487923e-05
			],
			"min":[
				-0.04573163017630577,
				-0.045491281896829605,
				1.0588230907160323e-05
			],
			"type":"VEC3"
		},
		{
			"bufferView":37,
			"componentType":5126,
			"count":102053,
			"type":"VEC3"
		},
		{
			"bufferView":38,
			"componentType":5126,
			"count":102053,
			"type":"VEC2"
		},
		{
			"bufferView":39,
			"componentType":5126,
			"count":102053,
			"type":"VEC2"
		},
		{
			"bufferView":40,
			"componentType":5126,
			"count":102053,
			"type":"VEC2"
		},
		{
			"bufferView":41,
			"componentType":5125,
			"count":376950,
			"type":"SCALAR"
		}
	],
	"bufferViews":[
		{
			"buffer":0,
			"byteLength":1041132,
			"byteOffset":0,
			"target":34962
		},
		{
			"buffer":0,
			"byteLength":1041132,
			"byteOffset":1041132,
			"target":34962
		},
		{
			"buffer":0,
			"byteLength":694088,
			"byteOffset":2082264,
			"target":34962
		},
		{
			"buffer":0,
			"byteLength":694088,
			"byteOffset":2776352,
			"target":34962
		},
		{
			"buffer":0,
			"byteLength":694088,
			"byteOffset":3470440,
			"target":34962
		},
		{
			"buffer":0,
			"byteLength":1519716,
			"byteOffset":4164528,
			"target":34963
		},
		{
			"buffer":0,
			"byteLength":1370808,
			"byteOffset":5684244,
			"target":34962
		},
		{
			"buffer":0,
			"byteLength":1370808,
			"byteOffset":7055052,
			"target":34962
		},
		{
			"buffer":0,
			"byteLength":913872,
			"byteOffset":8425860,
			"target":34962
		},
		{
			"buffer":0,
			"byteLength":913872,
			"byteOffset":9339732,
			"target":34962
		},
		{
			"buffer":0,
			"byteLength":913872,
			"byteOffset":10253604,
			"target":34962
		},
		{
			"buffer":0,
			"byteLength":1492020,
			"byteOffset":11167476,
			"target":34963
		},
		{
			"buffer":0,
			"byteLength":1399056,
			"byteOffset":12659496,
			"target":34962
		},
		{
			"buffer":0,
			"byteLength":1399056,
			"byteOffset":14058552,
			"target":34962
		},
		{
			"buffer":0,
			"byteLength":932704,
			"byteOffset":15457608,
			"target":34962
		},
		{
			"buffer":0,
			"byteLength":932704,
			"byteOffset":16390312,
			"target":34962
		},
		{
			"buffer":0,
			"byteLength":932704,
			"byteOffset":17323016,
			"target":34962
		},
		{
			"buffer":0,
			"byteLength":1505256,
			"byteOffset":18255720,
			"target":34963
		},
		{
			"buffer":0,
			"byteLength":1250712,
			"byteOffset":19760976,
			"target":34962
		},
		{
			"buffer":0,
			"byteLength":1250712,
			"byteOffset":21011688,
			"target":34962
		},
		{
			"buffer":0,
			"byteLength":833808,
			"byteOffset":22262400,
			"target":34962
		},
		{
			"buffer":0,
			"byteLength":833808,
			"byteOffset":23096208,
			"target":34962
		},
		{
			"buffer":0,
			"byteLength":833808,
			"byteOffset":23930016,
			"target":34962
		},
		{
			"buffer":0,
			"byteLength":1534692,
			"byteOffset":24763824,
			"target":34963
		},
		{
			"buffer":0,
			"byteLength":1362012,
			"byteOffset":26298516,
			"target":34962
		},
		{
			"buffer":0,
			"byteLength":1362012,
			"byteOffset":27660528,
			"target":34962
		},
		{
			"buffer":0,
			"byteLength":908008,
			"byteOffset":29022540,
			"target":34962
		},
		{
			"buffer":0,
			"byteLength":908008,
			"byteOffset":29930548,
			"target":34962
		},
		{
			"buffer":0,
			"byteLength":908008,
			"byteOffset":30838556,
			"target":34962
		},
		{
			"buffer":0,
			"byteLength":1531848,
			"byteOffset":31746564,
			"target":34963
		},
		{
			"buffer":0,
			"byteLength":1209276,
			"byteOffset":33278412,
			"target":34962
		},
		{
			"buffer":0,
			"byteLength":1209276,
			"byteOffset":34487688,
			"target":34962
		},
		{
			"buffer":0,
			"byteLength":806184,
			"byteOffset":35696964,
			"target":34962
		},
		{
			"buffer":0,
			"byteLength":806184,
			"byteOffset":36503148,
			"target":34962
		},
		{
			"buffer":0,
			"byteLength":806184,
			"byteOffset":37309332,
			"target":34962
		},
		{
			"buffer":0,
			"byteLength":1367196,
			"byteOffset":38115516,
			"target":34963
		},
		{
			"buffer":0,
			"byteLength":1224636,
			"byteOffset":39482712,
			"target":34962
		},
		{
			"buffer":0,
			"byteLength":1224636,
			"byteOffset":40707348,
			"target":34962
		},
		{
			"buffer":0,
			"byteLength":816424,
			"byteOffset":41931984,
			"target":34962
		},
		{
			"buffer":0,
			"byteLength":816424,
			"byteOffset":42748408,
			"target":34962
		},
		{
			"buffer":0,
			"byteLength":816424,
			"byteOffset":43564832,
			"target":34962
		},
		{
			"buffer":0,
			"byteLength":1507800,
			"byteOffset":44381256,
			"target":34963
		}
	],
	"samplers":[
		{
			"magFilter":9729,
			"minFilter":9987
		}
	],
	"buffers":[
		{
			"byteLength":45889056,
			"uri":"helipad_2.bin"
		}
	]
}
