{
	"asset":{
		"generator":"Khronos glTF Blender I/O v4.4.56",
		"version":"2.0"
	},
	"scene":0,
	"scenes":[
		{
			"name":"Scene",
			"nodes":[
				4
			]
		}
	],
	"nodes":[
		{
			"mesh":0,
			"name":"Object_2"
		},
		{
			"mesh":1,
			"name":"Object_3"
		},
		{
			"mesh":2,
			"name":"Object_4"
		},
		{
			"children":[
				0,
				1,
				2
			],
			"name":"SnowyMountainMesh.obj.cleaner.materialmerger.gles"
		},
		{
			"children":[
				3
			],
			"name":"Sketchfab_model.001",
			"rotation":[
				-0.9999971389770508,
				-0.002390551147982478,
				4.7992805775720626e-05,
				1.1472958050262605e-07
			],
			"scale":[
				200,
				200,
				200
			],
			"translation":[
				0.00046069626114331186,
				-0.096357062458992,
				0.09635782241821289
			]
		}
	],
	"materials":[
		{
			"doubleSided":true,
			"name":"material_0",
			"pbrMetallicRoughness":{
				"baseColorTexture":{
					"index":0
				},
				"metallicFactor":0,
				"roughnessFactor":0.6000000238418579
			}
		}
	],
	"meshes":[
		{
			"name":"Object_0",
			"primitives":[
				{
					"attributes":{
						"POSITION":0,
						"NORMAL":1,
						"TEXCOORD_0":2
					},
					"indices":3,
					"material":0
				}
			]
		},
		{
			"name":"Object_1",
			"primitives":[
				{
					"attributes":{
						"POSITION":4,
						"NORMAL":5,
						"TEXCOORD_0":6
					},
					"indices":7,
					"material":0
				}
			]
		},
		{
			"name":"Object_2",
			"primitives":[
				{
					"attributes":{
						"POSITION":8,
						"NORMAL":9,
						"TEXCOORD_0":10
					},
					"indices":11,
					"material":0
				}
			]
		}
	],
	"textures":[
		{
			"sampler":0,
			"source":0
		}
	],
	"images":[
		{
			"mimeType":"image/jpeg",
			"name":"material_0_baseColor_4096",
			"uri":"../textures/Mountain/material_0_baseColor_4096.jpg"
		}
	],
	"accessors":[
		{
			"bufferView":0,
			"componentType":5126,
			"count":65596,
			"max":[
				0.5,
				-0.02597000077366829,
				0.5
			],
			"min":[
				-0.5,
				-0.16649599373340607,
				-0.5
			],
			"type":"VEC3"
		},
		{
			"bufferView":1,
			"componentType":5126,
			"count":65596,
			"type":"VEC3"
		},
		{
			"bufferView":2,
			"componentType":5126,
			"count":65596,
			"type":"VEC2"
		},
		{
			"bufferView":3,
			"componentType":5125,
			"count":332190,
			"type":"SCALAR"
		},
		{
			"bufferView":4,
			"componentType":5126,
			"count":65696,
			"max":[
				0.5,
				-0.02528800070285797,
				0.47506898641586304
			],
			"min":[
				-0.5,
				-0.16742800176143646,
				-0.5
			],
			"type":"VEC3"
		},
		{
			"bufferView":5,
			"componentType":5126,
			"count":65696,
			"type":"VEC3"
		},
		{
			"bufferView":6,
			"componentType":5126,
			"count":65696,
			"type":"VEC2"
		},
		{
			"bufferView":7,
			"componentType":5125,
			"count":332487,
			"type":"SCALAR"
		},
		{
			"bufferView":8,
			"componentType":5126,
			"count":25825,
			"max":[
				0.5,
				-0.026327000930905342,
				0.4833790063858032
			],
			"min":[
				-0.49722999334335327,
				-0.15091200172901154,
				0.1869809925556183
			],
			"type":"VEC3"
		},
		{
			"bufferView":9,
			"componentType":5126,
			"count":25825,
			"type":"VEC3"
		},
		{
			"bufferView":10,
			"componentType":5126,
			"count":25825,
			"type":"VEC2"
		},
		{
			"bufferView":11,
			"componentType":5123,
			"count":117249,
			"type":"SCALAR"
		}
	],
	"bufferViews":[
		{
			"buffer":0,
			"byteLength":787152,
			"byteOffset":0,
			"target":34962
		},
		{
			"buffer":0,
			"byteLength":787152,
			"byteOffset":787152,
			"target":34962
		},
		{
			"buffer":0,
			"byteLength":524768,
			"byteOffset":1574304,
			"target":34962
		},
		{
			"buffer":0,
			"byteLength":1328760,
			"byteOffset":2099072,
			"target":34963
		},
		{
			"buffer":0,
			"byteLength":788352,
			"byteOffset":3427832,
			"target":34962
		},
		{
			"buffer":0,
			"byteLength":788352,
			"byteOffset":4216184,
			"target":34962
		},
		{
			"buffer":0,
			"byteLength":525568,
			"byteOffset":5004536,
			"target":34962
		},
		{
			"buffer":0,
			"byteLength":1329948,
			"byteOffset":5530104,
			"target":34963
		},
		{
			"buffer":0,
			"byteLength":309900,
			"byteOffset":6860052,
			"target":34962
		},
		{
			"buffer":0,
			"byteLength":309900,
			"byteOffset":7169952,
			"target":34962
		},
		{
			"buffer":0,
			"byteLength":206600,
			"byteOffset":7479852,
			"target":34962
		},
		{
			"buffer":0,
			"byteLength":234498,
			"byteOffset":7686452,
			"target":34963
		}
	],
	"samplers":[
		{
			"magFilter":9729,
			"minFilter":9987
		}
	],
	"buffers":[
		{
			"byteLength":7920952,
			"uri":"map_only_2.bin"
		}
	]
}
